<svg width="34" height="28" viewBox="0 0 34 28" fill="none" xmlns="http://www.w3.org/2000/svg">
<mask id="path-1-inside-1_835_4539" fill="white">
<path d="M32.3513 27.1796C33.3238 26.9678 33.9453 26.0058 33.6823 25.0458C31.7563 18.014 27.6181 11.7686 21.8569 7.24895C16.0956 2.72934 9.04453 0.197039 1.75636 0.000471231C0.761348 -0.0263652 -0.0249655 0.8062 0.000854932 1.80124V1.80124C0.0266753 2.79629 0.854937 3.57642 1.84977 3.60949C8.29875 3.82386 14.5308 6.0832 19.632 10.085C24.7332 14.0868 28.4113 19.6018 30.1548 25.8143C30.4238 26.7727 31.3787 27.3914 32.3513 27.1796V27.1796Z"/>
</mask>
<path d="M32.3513 27.1796C33.3238 26.9678 33.9453 26.0058 33.6823 25.0458C31.7563 18.014 27.6181 11.7686 21.8569 7.24895C16.0956 2.72934 9.04453 0.197039 1.75636 0.000471231C0.761348 -0.0263652 -0.0249655 0.8062 0.000854932 1.80124V1.80124C0.0266753 2.79629 0.854937 3.57642 1.84977 3.60949C8.29875 3.82386 14.5308 6.0832 19.632 10.085C24.7332 14.0868 28.4113 19.6018 30.1548 25.8143C30.4238 26.7727 31.3787 27.3914 32.3513 27.1796V27.1796Z" stroke="url(#paint0_linear_835_4539)" stroke-width="9.90685" mask="url(#path-1-inside-1_835_4539)"/>
<defs>
<linearGradient id="paint0_linear_835_4539" x1="-33.2173" y1="34.0429" x2="34.8923" y2="34.0429" gradientUnits="userSpaceOnUse">
<stop stop-color="#63DFFF"/>
<stop offset="1" stop-color="#0291FF"/>
</linearGradient>
</defs>
</svg>
