<svg width="35" height="40" viewBox="0 0 35 40" fill="none" xmlns="http://www.w3.org/2000/svg">
<mask id="path-1-inside-1_835_4531" fill="white">
<path d="M32.1537 39.6783C33.1337 39.8527 34.0745 39.1999 34.1968 38.2121C34.7374 33.8455 34.4273 29.4095 33.2773 25.1507C31.9705 20.3111 29.6114 15.8197 26.3684 11.9971C23.1254 8.17451 19.0784 5.11503 14.5165 3.03706C10.502 1.20846 6.17585 0.179628 1.77952 0.00139952C0.784954 -0.0389203 -0.0124121 0.782922 -6.54481e-05 1.77822V1.77822C0.0122812 2.77353 0.829802 3.5648 1.82409 3.61135C5.68949 3.79232 9.49078 4.70876 13.0223 6.31737C17.1014 8.17539 20.72 10.911 23.6197 14.329C26.5195 17.747 28.6289 21.763 29.7973 26.0903C30.809 29.8368 31.0937 33.7366 30.6424 37.5798C30.5263 38.5684 31.1737 39.5039 32.1537 39.6783V39.6783Z"/>
</mask>
<path d="M32.1537 39.6783C33.1337 39.8527 34.0745 39.1999 34.1968 38.2121C34.7374 33.8455 34.4273 29.4095 33.2773 25.1507C31.9705 20.3111 29.6114 15.8197 26.3684 11.9971C23.1254 8.17451 19.0784 5.11503 14.5165 3.03706C10.502 1.20846 6.17585 0.179628 1.77952 0.00139952C0.784954 -0.0389203 -0.0124121 0.782922 -6.54481e-05 1.77822V1.77822C0.0122812 2.77353 0.829802 3.5648 1.82409 3.61135C5.68949 3.79232 9.49078 4.70876 13.0223 6.31737C17.1014 8.17539 20.72 10.911 23.6197 14.329C26.5195 17.747 28.6289 21.763 29.7973 26.0903C30.809 29.8368 31.0937 33.7366 30.6424 37.5798C30.5263 38.5684 31.1737 39.5039 32.1537 39.6783V39.6783Z" stroke="url(#paint0_linear_835_4531)" stroke-width="9.90685" mask="url(#path-1-inside-1_835_4531)"/>
<defs>
<linearGradient id="paint0_linear_835_4531" x1="-33.6548" y1="34.0282" x2="34.4548" y2="34.0282" gradientUnits="userSpaceOnUse">
<stop stop-color="#63DFFF"/>
<stop offset="1" stop-color="#0291FF"/>
</linearGradient>
</defs>
</svg>
