<svg width="29" height="17" viewBox="0 0 29 17" fill="none" xmlns="http://www.w3.org/2000/svg">
<mask id="path-1-inside-1_835_4547" fill="white">
<path d="M27.4596 16.3326C28.2917 15.7863 28.5273 14.6657 27.9378 13.8637C24.9062 9.73896 20.9785 6.34416 16.4416 3.9403C11.9047 1.53644 6.89001 0.19323 1.77463 0.00130032C0.779948 -0.0360201 -0.0149721 0.788222 0.000374841 1.78348V1.78348C0.0157218 2.77874 0.835639 3.56755 1.83006 3.6111C6.33792 3.80852 10.7536 5.00586 14.754 7.12542C18.7543 9.24498 22.2249 12.2261 24.9199 15.8451C25.5144 16.6434 26.6275 16.8788 27.4596 16.3326V16.3326Z"/>
</mask>
<path d="M27.4596 16.3326C28.2917 15.7863 28.5273 14.6657 27.9378 13.8637C24.9062 9.73896 20.9785 6.34416 16.4416 3.9403C11.9047 1.53644 6.89001 0.19323 1.77463 0.00130032C0.779948 -0.0360201 -0.0149721 0.788222 0.000374841 1.78348V1.78348C0.0157218 2.77874 0.835639 3.56755 1.83006 3.6111C6.33792 3.80852 10.7536 5.00586 14.754 7.12542C18.7543 9.24498 22.2249 12.2261 24.9199 15.8451C25.5144 16.6434 26.6275 16.8788 27.4596 16.3326V16.3326Z" stroke="url(#paint0_linear_835_4547)" stroke-width="9.90685" mask="url(#path-1-inside-1_835_4547)"/>
<defs>
<linearGradient id="paint0_linear_835_4547" x1="-33.5571" y1="34.0321" x2="34.5524" y2="34.0321" gradientUnits="userSpaceOnUse">
<stop stop-color="#63DFFF"/>
<stop offset="1" stop-color="#0291FF"/>
</linearGradient>
</defs>
</svg>
