<svg width="23" height="11" viewBox="0 0 23 11" fill="none" xmlns="http://www.w3.org/2000/svg">
<mask id="path-1-inside-1_835_4563" fill="white">
<path d="M22.1187 10.403C22.7967 9.67427 22.7584 8.52972 21.9948 7.89122C16.3014 3.13057 9.20603 0.359579 1.7932 0.00182476C0.798981 -0.0461578 -0.00486234 0.769496 -0.000211617 1.76486V1.76486C0.00443911 2.76023 0.815994 3.5578 1.8099 3.61201C8.30558 3.96632 14.5193 6.39297 19.5359 10.5346C20.3035 11.1683 21.4407 11.1318 22.1187 10.403V10.403Z"/>
</mask>
<path d="M22.1187 10.403C22.7967 9.67427 22.7584 8.52972 21.9948 7.89122C16.3014 3.13057 9.20603 0.359579 1.7932 0.00182476C0.798981 -0.0461578 -0.00486234 0.769496 -0.000211617 1.76486V1.76486C0.00443911 2.76023 0.815994 3.5578 1.8099 3.61201C8.30558 3.96632 14.5193 6.39297 19.5359 10.5346C20.3035 11.1683 21.4407 11.1318 22.1187 10.403V10.403Z" stroke="url(#paint0_linear_835_4563)" stroke-width="9.90685" mask="url(#path-1-inside-1_835_4563)"/>
<defs>
<linearGradient id="paint0_linear_835_4563" x1="-33.9043" y1="34.017" x2="34.2053" y2="34.017" gradientUnits="userSpaceOnUse">
<stop stop-color="#63DFFF"/>
<stop offset="1" stop-color="#0291FF"/>
</linearGradient>
</defs>
</svg>
