<svg width="29" height="17" viewBox="0 0 29 17" fill="none" xmlns="http://www.w3.org/2000/svg">
<mask id="path-1-inside-1_835_4555" fill="white">
<path d="M27.3482 16.5277C28.1844 15.9878 28.4285 14.869 27.8451 14.0625C24.8449 9.91485 20.9432 6.49031 16.4246 4.05204C11.9061 1.61378 6.90179 0.232517 1.78801 0.00173C0.793646 -0.0431461 -0.00751205 0.775033 0.000273213 1.77038V1.77038C0.00805847 2.76573 0.821959 3.56074 1.81602 3.61185C6.32225 3.84351 10.7287 5.07436 14.7129 7.22425C18.697 9.37414 22.1448 12.3816 24.8122 16.0209C25.4007 16.8237 26.512 17.0676 27.3482 16.5277V16.5277Z"/>
</mask>
<path d="M27.3482 16.5277C28.1844 15.9878 28.4285 14.869 27.8451 14.0625C24.8449 9.91485 20.9432 6.49031 16.4246 4.05204C11.9061 1.61378 6.90179 0.232517 1.78801 0.00173C0.793646 -0.0431461 -0.00751205 0.775033 0.000273213 1.77038V1.77038C0.00805847 2.76573 0.821959 3.56074 1.81602 3.61185C6.32225 3.84351 10.7287 5.07436 14.7129 7.22425C18.697 9.37414 22.1448 12.3816 24.8122 16.0209C25.4007 16.8237 26.512 17.0676 27.3482 16.5277V16.5277Z" stroke="url(#paint0_linear_835_4555)" stroke-width="9.90685" mask="url(#path-1-inside-1_835_4555)"/>
<defs>
<linearGradient id="paint0_linear_835_4555" x1="-33.8022" y1="34.0219" x2="34.3073" y2="34.0219" gradientUnits="userSpaceOnUse">
<stop stop-color="#63DFFF"/>
<stop offset="1" stop-color="#0291FF"/>
</linearGradient>
</defs>
</svg>
